<svg width="113" height="33" viewBox="0 0 113 33" fill="none" xmlns="http://www.w3.org/2000/svg">
<path d="M24.7625 7.82418C24.0391 6.09699 22.8214 4.6221 21.2624 3.58482C19.7034 2.54754 17.8726 1.99414 16 1.99414C14.1275 1.99414 12.2967 2.54754 10.7376 3.58482C9.17862 4.6221 7.96092 6.09699 7.23753 7.82418C5.67529 8.53823 4.3511 9.68611 3.42258 11.1312C2.49405 12.5763 2.00028 14.2577 2.00003 15.9754C1.98753 20.7504 6.00003 24.8754 10.7675 25.0004C12.2339 25.0358 13.6868 24.7127 15 24.0592V29.0004C15 29.2656 15.1054 29.52 15.2929 29.7075C15.4805 29.8951 15.7348 30.0004 16 30.0004C16.2652 30.0004 16.5196 29.8951 16.7071 29.7075C16.8947 29.52 17 29.2656 17 29.0004V24.0592C18.2432 24.6765 19.612 24.9986 21 25.0004H21.2275C26 24.8754 30.0138 20.7504 30 15.9754C29.9998 14.2577 29.506 12.5763 28.5775 11.1312C27.649 9.68611 26.3248 8.53823 24.7625 7.82418ZM21.1813 23.0004C19.69 23.0393 18.2253 22.6014 17 21.7504V16.6254L22.4475 13.9029C22.5651 13.8442 22.6699 13.7628 22.756 13.6636C22.8421 13.5643 22.9078 13.449 22.9493 13.3244C22.9909 13.1997 23.0075 13.0681 22.9982 12.937C22.9888 12.8059 22.9538 12.678 22.895 12.5604C22.8363 12.4429 22.7549 12.3381 22.6556 12.252C22.5564 12.1659 22.4411 12.1002 22.3165 12.0586C22.1918 12.0171 22.0602 12.0005 21.9291 12.0098C21.798 12.0191 21.6701 12.0542 21.5525 12.1129L17 14.3829V11.0004C17 10.7352 16.8947 10.4809 16.7071 10.2933C16.5196 10.1058 16.2652 10.0004 16 10.0004C15.7348 10.0004 15.4805 10.1058 15.2929 10.2933C15.1054 10.4809 15 10.7352 15 11.0004V17.3829L10.4475 15.1054C10.2102 14.9867 9.93537 14.9672 9.6836 15.0511C9.43183 15.1351 9.22371 15.3156 9.10503 15.5529C8.98634 15.7903 8.96682 16.0651 9.05074 16.3169C9.13466 16.5686 9.31516 16.7767 9.55253 16.8954L15 19.6179V21.7429C13.7751 22.5945 12.3101 23.0325 10.8188 22.9929C7.11253 22.9042 3.99003 19.6904 4.00003 15.9804C3.99908 14.5852 4.41684 13.2217 5.19927 12.0664C5.98169 10.9112 7.09277 10.0173 8.38878 9.50043C8.51879 9.44823 8.63638 9.36928 8.73393 9.26872C8.83147 9.16816 8.9068 9.04822 8.95503 8.91668C9.4825 7.47217 10.4413 6.22472 11.7014 5.34333C12.9616 4.46194 14.4622 3.98922 16 3.98922C17.5378 3.98922 19.0385 4.46194 20.2986 5.34333C21.5588 6.22472 22.5176 7.47217 23.045 8.91668C23.0933 9.04822 23.1686 9.16816 23.2661 9.26872C23.3637 9.36928 23.4813 9.44823 23.6113 9.50043C24.9071 10.0176 26.018 10.9116 26.8004 12.0667C27.5827 13.2219 28.0006 14.5852 28 15.9804C28.01 19.6904 24.8875 22.9042 21.1813 23.0004Z" fill="#006648"/>
<path d="M41.526 14.234C40.77 14.234 40.092 14.126 39.492 13.91C38.904 13.694 38.406 13.382 37.998 12.974C37.59 12.554 37.278 12.05 37.062 11.462C36.846 10.874 36.738 10.208 36.738 9.464C36.738 8.72 36.84 8.036 37.044 7.412C37.26 6.788 37.566 6.248 37.962 5.792C38.358 5.336 38.838 4.982 39.402 4.73C39.978 4.478 40.632 4.352 41.364 4.352C42.048 4.352 42.66 4.466 43.2 4.694C43.74 4.922 44.196 5.264 44.568 5.72C44.94 6.164 45.216 6.722 45.396 7.394C45.576 8.054 45.636 8.822 45.576 9.698L38.214 9.752V8.438L44.262 8.384L43.47 9.122C43.542 8.438 43.488 7.88 43.308 7.448C43.128 7.004 42.87 6.68 42.534 6.476C42.198 6.26 41.814 6.152 41.382 6.152C40.89 6.152 40.458 6.284 40.086 6.548C39.714 6.8 39.426 7.172 39.222 7.664C39.03 8.144 38.934 8.732 38.934 9.428C38.934 10.472 39.162 11.252 39.618 11.768C40.086 12.284 40.722 12.542 41.526 12.542C41.886 12.542 42.186 12.5 42.426 12.416C42.678 12.32 42.888 12.2 43.056 12.056C43.224 11.9 43.356 11.726 43.452 11.534C43.56 11.342 43.644 11.138 43.704 10.922L45.684 11.372C45.588 11.816 45.432 12.212 45.216 12.56C45 12.908 44.718 13.208 44.37 13.46C44.034 13.712 43.632 13.904 43.164 14.036C42.696 14.168 42.15 14.234 41.526 14.234ZM51.9494 14.234C51.1334 14.234 50.4254 14.114 49.8254 13.874C49.2374 13.634 48.7454 13.298 48.3494 12.866C47.9654 12.422 47.6774 11.906 47.4854 11.318C47.2934 10.73 47.1974 10.094 47.1974 9.41C47.1974 8.678 47.2934 8.006 47.4854 7.394C47.6894 6.782 47.9894 6.248 48.3854 5.792C48.7814 5.336 49.2674 4.982 49.8434 4.73C50.4314 4.478 51.1034 4.352 51.8594 4.352C52.6154 4.352 53.2694 4.478 53.8214 4.73C54.3854 4.982 54.8414 5.336 55.1894 5.792C55.5374 6.236 55.7714 6.758 55.8914 7.358L53.7674 8.024C53.7434 7.664 53.6474 7.346 53.4794 7.07C53.3114 6.782 53.0834 6.56 52.7954 6.404C52.5074 6.248 52.1654 6.17 51.7694 6.17C51.3854 6.17 51.0494 6.248 50.7614 6.404C50.4854 6.548 50.2514 6.758 50.0594 7.034C49.8794 7.31 49.7354 7.646 49.6274 8.042C49.5314 8.426 49.4834 8.858 49.4834 9.338C49.4834 9.998 49.5734 10.562 49.7534 11.03C49.9334 11.498 50.2094 11.864 50.5814 12.128C50.9534 12.38 51.4154 12.506 51.9674 12.506C52.4594 12.506 52.8554 12.416 53.1554 12.236C53.4674 12.044 53.7014 11.798 53.8574 11.498C54.0254 11.198 54.1274 10.868 54.1634 10.508L56.1794 10.958C56.1074 11.45 55.9694 11.894 55.7654 12.29C55.5614 12.686 55.2794 13.034 54.9194 13.334C54.5714 13.622 54.1514 13.844 53.6594 14C53.1674 14.156 52.5974 14.234 51.9494 14.234ZM61.9677 14.234C61.0437 14.234 60.2277 14.048 59.5197 13.676C58.8117 13.292 58.2537 12.734 57.8457 12.002C57.4497 11.258 57.2517 10.346 57.2517 9.266C57.2517 8.162 57.4557 7.25 57.8637 6.53C58.2837 5.798 58.8477 5.252 59.5557 4.892C60.2637 4.532 61.0617 4.352 61.9497 4.352C62.8737 4.352 63.6897 4.538 64.3977 4.91C65.1057 5.282 65.6637 5.84 66.0717 6.584C66.4797 7.316 66.6837 8.228 66.6837 9.32C66.6837 10.424 66.4797 11.342 66.0717 12.074C65.6637 12.806 65.0997 13.352 64.3797 13.712C63.6717 14.06 62.8677 14.234 61.9677 14.234ZM62.0577 12.506C62.5617 12.506 62.9877 12.392 63.3357 12.164C63.6837 11.924 63.9477 11.57 64.1277 11.102C64.3197 10.634 64.4157 10.076 64.4157 9.428C64.4157 8.744 64.3137 8.162 64.1097 7.682C63.9177 7.19 63.6357 6.812 63.2637 6.548C62.9037 6.284 62.4477 6.152 61.8957 6.152C61.4157 6.152 60.9957 6.272 60.6357 6.512C60.2757 6.74 59.9997 7.082 59.8077 7.538C59.6277 7.994 59.5377 8.558 59.5377 9.23C59.5377 10.286 59.7597 11.096 60.2037 11.66C60.6597 12.224 61.2777 12.506 62.0577 12.506ZM40.932 30.234C40.296 30.234 39.72 30.168 39.204 30.036C38.7 29.916 38.268 29.742 37.908 29.514C37.548 29.274 37.26 28.992 37.044 28.668C36.828 28.332 36.696 27.96 36.648 27.552L38.43 26.886C38.454 27.198 38.574 27.48 38.79 27.732C39.006 27.972 39.306 28.164 39.69 28.308C40.074 28.452 40.536 28.524 41.076 28.524C41.676 28.524 42.138 28.434 42.462 28.254C42.798 28.062 42.966 27.792 42.966 27.444C42.966 27.192 42.876 26.994 42.696 26.85C42.516 26.694 42.252 26.568 41.904 26.472C41.568 26.364 41.16 26.262 40.68 26.166C40.236 26.07 39.786 25.962 39.33 25.842C38.886 25.71 38.472 25.542 38.088 25.338C37.716 25.122 37.41 24.846 37.17 24.51C36.942 24.162 36.828 23.724 36.828 23.196C36.828 22.62 36.978 22.122 37.278 21.702C37.59 21.282 38.034 20.952 38.61 20.712C39.198 20.472 39.906 20.352 40.734 20.352C41.514 20.352 42.186 20.46 42.75 20.676C43.326 20.892 43.794 21.204 44.154 21.612C44.514 22.008 44.742 22.482 44.838 23.034L42.966 23.628C42.93 23.292 42.816 23.01 42.624 22.782C42.432 22.542 42.174 22.362 41.85 22.242C41.526 22.122 41.148 22.062 40.716 22.062C40.164 22.062 39.732 22.158 39.42 22.35C39.108 22.542 38.952 22.8 38.952 23.124C38.952 23.388 39.048 23.598 39.24 23.754C39.444 23.91 39.72 24.036 40.068 24.132C40.428 24.228 40.836 24.324 41.292 24.42C41.772 24.516 42.234 24.63 42.678 24.762C43.134 24.882 43.542 25.044 43.902 25.248C44.262 25.452 44.55 25.722 44.766 26.058C44.982 26.382 45.09 26.802 45.09 27.318C45.09 27.942 44.922 28.476 44.586 28.92C44.25 29.352 43.77 29.682 43.146 29.91C42.534 30.126 41.796 30.234 40.932 30.234ZM50.2751 30.216C49.2791 30.216 48.5471 29.952 48.0791 29.424C47.6111 28.884 47.3771 28.05 47.3771 26.922V22.404H45.9911L46.0271 20.604H46.9451C47.2931 20.604 47.5511 20.55 47.7191 20.442C47.8871 20.334 47.9891 20.142 48.0251 19.866L48.2411 18.498H49.5551V20.586H52.0391V22.476H49.5551V26.832C49.5551 27.276 49.6571 27.6 49.8611 27.804C50.0771 28.008 50.3951 28.11 50.8151 28.11C51.0431 28.11 51.2651 28.086 51.4811 28.038C51.7091 27.978 51.9191 27.882 52.1111 27.75V29.91C51.7391 30.03 51.3971 30.108 51.0851 30.144C50.7851 30.192 50.5151 30.216 50.2751 30.216ZM56.1552 30.234C55.6392 30.234 55.1772 30.138 54.7692 29.946C54.3612 29.742 54.0372 29.442 53.7972 29.046C53.5692 28.65 53.4552 28.158 53.4552 27.57C53.4552 27.078 53.5452 26.658 53.7252 26.31C53.9172 25.962 54.1992 25.68 54.5712 25.464C54.9432 25.236 55.4052 25.05 55.9572 24.906C56.5092 24.75 57.1572 24.618 57.9012 24.51C58.3092 24.45 58.6392 24.39 58.8912 24.33C59.1552 24.27 59.3472 24.18 59.4672 24.06C59.5872 23.928 59.6472 23.736 59.6472 23.484C59.6472 23.112 59.5152 22.794 59.2512 22.53C58.9992 22.254 58.5852 22.116 58.0092 22.116C57.6612 22.116 57.3252 22.176 57.0012 22.296C56.6892 22.416 56.4192 22.608 56.1912 22.872C55.9632 23.124 55.8072 23.46 55.7232 23.88L53.6892 23.25C53.8212 22.77 54.0132 22.356 54.2652 22.008C54.5172 21.648 54.8292 21.342 55.2012 21.09C55.5732 20.838 55.9992 20.652 56.4792 20.532C56.9592 20.412 57.4872 20.352 58.0632 20.352C58.9392 20.352 59.6592 20.496 60.2232 20.784C60.7872 21.06 61.2072 21.498 61.4832 22.098C61.7592 22.686 61.8972 23.448 61.8972 24.384V26.148C61.8972 26.556 61.9032 26.982 61.9152 27.426C61.9392 27.858 61.9632 28.296 61.9872 28.74C62.0232 29.172 62.0652 29.592 62.1132 30H60.0792C60.0312 29.664 59.9892 29.304 59.9532 28.92C59.9172 28.536 59.8872 28.146 59.8632 27.75H59.5752C59.4072 28.206 59.1672 28.626 58.8552 29.01C58.5432 29.382 58.1592 29.682 57.7032 29.91C57.2592 30.126 56.7432 30.234 56.1552 30.234ZM57.0552 28.56C57.2952 28.56 57.5352 28.518 57.7752 28.434C58.0272 28.35 58.2732 28.224 58.5132 28.056C58.7532 27.888 58.9752 27.684 59.1792 27.444C59.3832 27.192 59.5572 26.898 59.7012 26.562L59.6652 24.96L60.0972 25.032C59.8932 25.2 59.6412 25.332 59.3412 25.428C59.0412 25.524 58.7232 25.596 58.3872 25.644C58.0632 25.692 57.7332 25.752 57.3972 25.824C57.0732 25.884 56.7792 25.968 56.5152 26.076C56.2512 26.172 56.0412 26.316 55.8852 26.508C55.7292 26.688 55.6512 26.94 55.6512 27.264C55.6512 27.672 55.7832 27.99 56.0472 28.218C56.3112 28.446 56.6472 28.56 57.0552 28.56ZM64.3483 30V24.042V20.586H66.2023L66.1483 23.466H66.4723C66.6403 22.77 66.8563 22.194 67.1203 21.738C67.3963 21.27 67.7323 20.922 68.1283 20.694C68.5243 20.466 68.9803 20.352 69.4963 20.352C70.0723 20.352 70.5463 20.484 70.9183 20.748C71.2903 21.012 71.5723 21.378 71.7643 21.846C71.9683 22.302 72.0943 22.836 72.1423 23.448H72.4303C72.5863 22.752 72.8083 22.176 73.0963 21.72C73.3963 21.264 73.7563 20.922 74.1763 20.694C74.6083 20.466 75.0823 20.352 75.5983 20.352C76.1023 20.352 76.5463 20.454 76.9303 20.658C77.3143 20.862 77.6323 21.162 77.8843 21.558C78.1483 21.942 78.3403 22.428 78.4603 23.016C78.5923 23.604 78.6583 24.282 78.6583 25.05V30H76.3723V25.338C76.3723 24.666 76.3123 24.108 76.1923 23.664C76.0843 23.22 75.9103 22.89 75.6703 22.674C75.4423 22.446 75.1423 22.332 74.7703 22.332C74.3503 22.332 73.9843 22.47 73.6723 22.746C73.3603 23.022 73.1143 23.412 72.9343 23.916C72.7543 24.408 72.6463 24.972 72.6103 25.608V30H70.3783V25.446C70.3783 24.75 70.3183 24.174 70.1983 23.718C70.0783 23.25 69.8983 22.902 69.6583 22.674C69.4183 22.446 69.1123 22.332 68.7403 22.332C68.3083 22.332 67.9363 22.476 67.6243 22.764C67.3243 23.052 67.0843 23.448 66.9043 23.952C66.7363 24.456 66.6403 25.02 66.6163 25.644V30H64.3483ZM81.0651 32.988V25.356V20.586H82.9731L82.9551 23.142L83.2611 23.16C83.3811 22.56 83.5731 22.05 83.8371 21.63C84.1131 21.21 84.4611 20.892 84.8811 20.676C85.3011 20.46 85.7991 20.352 86.3751 20.352C87.2151 20.352 87.9291 20.562 88.5171 20.982C89.1051 21.39 89.5491 21.972 89.8491 22.728C90.1611 23.472 90.3171 24.342 90.3171 25.338C90.3171 26.274 90.1731 27.114 89.8851 27.858C89.6091 28.59 89.1831 29.172 88.6071 29.604C88.0431 30.024 87.3411 30.234 86.5011 30.234C85.8891 30.234 85.3731 30.114 84.9531 29.874C84.5331 29.634 84.1911 29.304 83.9271 28.884C83.6631 28.464 83.4471 27.978 83.2791 27.426H82.9551C83.0271 27.75 83.0871 28.086 83.1351 28.434C83.1951 28.77 83.2431 29.106 83.2791 29.442C83.3151 29.766 83.3331 30.078 83.3331 30.378V32.988H81.0651ZM85.7631 28.38C86.2311 28.38 86.6271 28.254 86.9511 28.002C87.2751 27.738 87.5211 27.378 87.6891 26.922C87.8571 26.454 87.9411 25.92 87.9411 25.32C87.9411 24.696 87.8511 24.156 87.6711 23.7C87.5031 23.244 87.2511 22.89 86.9151 22.638C86.5791 22.386 86.1831 22.26 85.7271 22.26C85.3311 22.26 84.9831 22.35 84.6831 22.53C84.3831 22.71 84.1311 22.95 83.9271 23.25C83.7231 23.538 83.5731 23.85 83.4771 24.186C83.3811 24.522 83.3331 24.852 83.3331 25.176V25.482C83.3331 25.722 83.3631 25.974 83.4231 26.238C83.4951 26.49 83.5971 26.748 83.7291 27.012C83.8611 27.264 84.0231 27.498 84.2151 27.714C84.4071 27.918 84.6351 28.08 84.8991 28.2C85.1631 28.32 85.4511 28.38 85.7631 28.38ZM96.6334 30.234C95.8774 30.234 95.1994 30.126 94.5994 29.91C94.0114 29.694 93.5134 29.382 93.1054 28.974C92.6974 28.554 92.3854 28.05 92.1694 27.462C91.9534 26.874 91.8454 26.208 91.8454 25.464C91.8454 24.72 91.9474 24.036 92.1514 23.412C92.3674 22.788 92.6734 22.248 93.0694 21.792C93.4654 21.336 93.9454 20.982 94.5094 20.73C95.0854 20.478 95.7394 20.352 96.4714 20.352C97.1554 20.352 97.7674 20.466 98.3074 20.694C98.8474 20.922 99.3034 21.264 99.6754 21.72C100.047 22.164 100.323 22.722 100.503 23.394C100.683 24.054 100.743 24.822 100.683 25.698L93.3214 25.752V24.438L99.3694 24.384L98.5774 25.122C98.6494 24.438 98.5954 23.88 98.4154 23.448C98.2354 23.004 97.9774 22.68 97.6414 22.476C97.3054 22.26 96.9214 22.152 96.4894 22.152C95.9974 22.152 95.5654 22.284 95.1934 22.548C94.8214 22.8 94.5334 23.172 94.3294 23.664C94.1374 24.144 94.0414 24.732 94.0414 25.428C94.0414 26.472 94.2694 27.252 94.7254 27.768C95.1934 28.284 95.8294 28.542 96.6334 28.542C96.9934 28.542 97.2934 28.5 97.5334 28.416C97.7854 28.32 97.9954 28.2 98.1634 28.056C98.3314 27.9 98.4634 27.726 98.5594 27.534C98.6674 27.342 98.7514 27.138 98.8114 26.922L100.791 27.372C100.695 27.816 100.539 28.212 100.323 28.56C100.107 28.908 99.8254 29.208 99.4774 29.46C99.1414 29.712 98.7394 29.904 98.2714 30.036C97.8034 30.168 97.2574 30.234 96.6334 30.234ZM106.228 30.234C105.436 30.234 104.746 30.03 104.158 29.622C103.582 29.214 103.138 28.644 102.826 27.912C102.514 27.168 102.358 26.292 102.358 25.284C102.358 24.336 102.502 23.496 102.79 22.764C103.078 22.02 103.498 21.438 104.05 21.018C104.614 20.586 105.31 20.37 106.138 20.37C106.774 20.37 107.296 20.496 107.704 20.748C108.124 20.988 108.466 21.33 108.73 21.774C108.994 22.206 109.204 22.716 109.36 23.304H109.738C109.666 22.932 109.6 22.56 109.54 22.188C109.48 21.816 109.426 21.462 109.378 21.126C109.342 20.778 109.324 20.466 109.324 20.19V17.22H111.61V25.374V30H109.684L109.72 27.336H109.378C109.246 27.96 109.042 28.488 108.766 28.92C108.49 29.352 108.142 29.682 107.722 29.91C107.314 30.126 106.816 30.234 106.228 30.234ZM106.948 28.362C107.344 28.362 107.692 28.272 107.992 28.092C108.292 27.9 108.538 27.66 108.73 27.372C108.934 27.084 109.084 26.772 109.18 26.436C109.288 26.088 109.342 25.764 109.342 25.464V25.158C109.342 24.93 109.306 24.684 109.234 24.42C109.174 24.156 109.078 23.898 108.946 23.646C108.826 23.382 108.664 23.148 108.46 22.944C108.268 22.728 108.04 22.56 107.776 22.44C107.524 22.308 107.242 22.242 106.93 22.242C106.462 22.242 106.066 22.374 105.742 22.638C105.418 22.902 105.166 23.262 104.986 23.718C104.818 24.174 104.734 24.708 104.734 25.32C104.734 25.932 104.824 26.466 105.004 26.922C105.184 27.378 105.436 27.732 105.76 27.984C106.096 28.236 106.492 28.362 106.948 28.362Z" fill="#006648"/>
</svg>
